<svg width="697" height="71" viewBox="0 0 697 71" fill="none" xmlns="http://www.w3.org/2000/svg">
<path d="M461 53C483.5 53 495 42.5 512.5 39C550 31.5 596 75.5 624.292 67.6591C651.993 59.9821 626.394 7.31507 647.952 7.31507C668.8 7.31507 634.834 66.2557 658.025 69.2963C671.091 71.0095 685.869 35.1721 696 1" stroke="#FF481F" stroke-width="2" stroke-linecap="round"/>
<path d="M474.134 37.4288C474.134 38.6825 474.099 39.6227 474.03 40.2495H449.532C449.601 42.7916 450.159 44.9332 451.203 46.6743C452.248 48.4155 453.623 49.7213 455.33 50.5919C457.036 51.4625 458.899 51.8978 460.919 51.8978V53.9349C458.272 53.9349 455.904 53.3429 453.815 52.159C451.726 50.975 450.089 49.2861 448.905 47.0922C447.721 44.8635 447.129 42.2692 447.129 39.3093C447.129 36.3493 447.703 33.7724 448.853 31.5786C450.037 29.3847 451.673 27.7132 453.763 26.5641C455.852 25.3801 458.237 24.7881 460.919 24.7881C463.635 24.7881 465.986 25.3801 467.97 26.5641C469.99 27.7132 471.522 29.2628 472.567 31.2129C473.612 33.1282 474.134 35.2002 474.134 37.4288ZM471.784 38.3168C471.888 35.8096 471.435 33.6854 470.425 31.9442C469.45 30.2031 468.11 28.9146 466.403 28.0789C464.697 27.2083 462.851 26.773 460.867 26.773C458.882 26.773 457.036 27.2083 455.33 28.0789C453.658 28.9146 452.283 30.2031 451.203 31.9442C450.159 33.6854 449.601 35.8096 449.532 38.3168H471.784Z" fill="#FF481F"/>
<path d="M439.795 17.6313V53.5164H437.444V22.5414L423.654 53.5164H421.774L407.932 22.5414V53.5164H405.581V17.6313H408.088L422.714 50.4346L437.34 17.6313H439.795Z" fill="#FF481F"/>
<path d="M376.23 27.1903V45.9425C376.23 48.0319 376.613 49.477 377.38 50.278C378.146 51.0441 379.504 51.4271 381.454 51.4271H384.64V53.5165H381.088C378.616 53.5165 376.788 52.9419 375.604 51.7928C374.454 50.6088 373.88 48.6587 373.88 45.9425V27.1903H369.597V25.1532H373.88V17.9448H376.23V25.1532H384.64V27.1903H376.23Z" fill="#FF481F"/>
<path d="M338.827 39.3083C338.827 36.3483 339.402 33.7714 340.551 31.5776C341.735 29.3837 343.354 27.7122 345.409 26.5631C347.498 25.3791 349.883 24.7871 352.565 24.7871C356.117 24.7871 359.024 25.6751 361.288 27.4511C363.586 29.227 365.014 31.6124 365.571 34.6072H363.116C362.663 32.1696 361.479 30.2543 359.564 28.8614C357.684 27.4685 355.351 26.772 352.565 26.772C350.475 26.772 348.578 27.2421 346.871 28.1824C345.165 29.0877 343.789 30.4981 342.745 32.4133C341.735 34.2938 341.23 36.5921 341.23 39.3083C341.23 42.0593 341.735 44.375 342.745 46.2555C343.789 48.1359 345.165 49.5463 346.871 50.4865C348.578 51.4267 350.475 51.8968 352.565 51.8968C355.351 51.8968 357.684 51.2003 359.564 49.8074C361.479 48.4145 362.663 46.4992 363.116 44.0616H365.571C365.014 47.0216 363.586 49.407 361.288 51.2178C358.99 53.0286 356.082 53.934 352.565 53.934C349.883 53.934 347.498 53.342 345.409 52.158C343.354 50.974 341.735 49.2851 340.551 47.0912C339.402 44.8626 338.827 42.2682 338.827 39.3083Z" fill="#FF481F"/>
<path d="M303.681 39.3083C303.681 36.3832 304.255 33.8237 305.404 31.6298C306.588 29.436 308.208 27.7471 310.262 26.5631C312.352 25.3791 314.72 24.7871 317.366 24.7871C320.361 24.7871 322.903 25.5184 324.992 26.981C327.082 28.4435 328.544 30.3066 329.38 32.57V25.1527H331.731V53.5161H329.38V46.0465C328.544 48.3449 327.064 50.2427 324.94 51.7401C322.851 53.2027 320.326 53.934 317.366 53.934C314.72 53.934 312.352 53.342 310.262 52.158C308.208 50.9392 306.588 49.2328 305.404 47.039C304.255 44.8103 303.681 42.2334 303.681 39.3083ZM329.38 39.3083C329.38 36.8359 328.858 34.6594 327.813 32.779C326.803 30.8637 325.41 29.4012 323.634 28.3913C321.858 27.3466 319.873 26.8243 317.679 26.8243C315.381 26.8243 313.361 27.3292 311.62 28.3391C309.879 29.3141 308.521 30.7418 307.546 32.6223C306.571 34.5027 306.083 36.7314 306.083 39.3083C306.083 41.8852 306.571 44.1139 307.546 45.9943C308.521 47.8748 309.879 49.3199 311.62 50.3298C313.396 51.3396 315.416 51.8446 317.679 51.8446C319.873 51.8446 321.858 51.3396 323.634 50.3298C325.445 49.2851 326.855 47.8225 327.865 45.9421C328.875 44.0268 329.38 41.8155 329.38 39.3083Z" fill="#FF481F"/>
<path d="M290.534 27.1903V45.9425C290.534 48.0319 290.917 49.477 291.683 50.278C292.449 51.0441 293.808 51.4271 295.758 51.4271H298.944V53.5165H295.392C292.92 53.5165 291.091 52.9419 289.907 51.7928C288.758 50.6088 288.184 48.6587 288.184 45.9425V27.1903H283.9V25.1532H288.184V17.9448H290.534V25.1532H298.944V27.1903H290.534Z" fill="#FF481F"/>
<path d="M267.288 24.5786C270.666 24.5786 273.417 25.6233 275.541 27.7127C277.665 29.7672 278.727 32.8317 278.727 36.906V53.5165H276.429V37.0627C276.429 33.6848 275.576 31.1079 273.869 29.332C272.163 27.5212 269.847 26.6158 266.922 26.6158C263.858 26.6158 261.403 27.5908 259.557 29.5409C257.746 31.491 256.841 34.3813 256.841 38.2118V53.5165H254.49V25.1532H256.841V31.1602C257.642 29.036 258.965 27.4167 260.811 26.3024C262.691 25.1532 264.85 24.5786 267.288 24.5786Z" fill="#FF481F"/>
<path d="M233.308 53.934C230.661 53.934 228.276 53.342 226.152 52.158C224.028 50.974 222.356 49.2851 221.137 47.0912C219.953 44.8626 219.361 42.2682 219.361 39.3083C219.361 36.3832 219.971 33.8237 221.19 31.6298C222.408 29.4012 224.08 27.7122 226.204 26.5631C228.363 25.3791 230.766 24.7871 233.412 24.7871C236.059 24.7871 238.444 25.3791 240.569 26.5631C242.693 27.7122 244.347 29.3837 245.531 31.5776C246.75 33.7714 247.359 36.3483 247.359 39.3083C247.359 42.2682 246.75 44.8626 245.531 47.0912C244.312 49.2851 242.623 50.974 240.464 52.158C238.34 53.342 235.954 53.934 233.308 53.934ZM233.308 51.8446C235.362 51.8446 237.278 51.3919 239.054 50.4865C240.865 49.5463 242.31 48.1359 243.389 46.2555C244.469 44.375 245.008 42.0593 245.008 39.3083C245.008 36.5921 244.469 34.2938 243.389 32.4133C242.31 30.5329 240.882 29.14 239.106 28.2346C237.33 27.2944 235.415 26.8243 233.36 26.8243C231.306 26.8243 229.39 27.2944 227.614 28.2346C225.873 29.14 224.463 30.5329 223.383 32.4133C222.304 34.2938 221.764 36.5921 221.764 39.3083C221.764 42.0593 222.286 44.375 223.331 46.2555C224.411 48.1359 225.821 49.5463 227.562 50.4865C229.338 51.3919 231.253 51.8446 233.308 51.8446Z" fill="#FF481F"/>
<path d="M179.164 35.2346C179.164 31.613 179.913 28.3919 181.41 25.5712C182.942 22.7157 185.032 20.4871 187.678 18.8852C190.36 17.2834 193.354 16.4824 196.663 16.4824C200.841 16.4824 204.358 17.4575 207.214 19.4076C210.069 21.3576 212.159 24.0912 213.482 27.6084H210.766C209.721 24.8225 207.98 22.6287 205.542 21.0268C203.14 19.3901 200.18 18.5718 196.663 18.5718C193.842 18.5718 191.282 19.2509 188.984 20.6089C186.686 21.9322 184.875 23.8649 183.552 26.407C182.228 28.9142 181.567 31.8568 181.567 35.2346C181.567 38.5776 182.228 41.5027 183.552 44.01C184.875 46.4824 186.686 48.3977 188.984 49.7558C191.282 51.1139 193.842 51.7929 196.663 51.7929C200.18 51.7929 203.14 50.992 205.542 49.3901C207.98 47.7535 209.721 45.5422 210.766 42.7564H213.482C212.159 46.2735 210.069 49.0071 207.214 50.9572C204.358 52.9073 200.841 53.8823 196.663 53.8823C193.354 53.8823 190.36 53.0988 187.678 51.5318C185.032 49.9299 182.942 47.7186 181.41 44.898C179.913 42.0425 179.164 38.8214 179.164 35.2346Z" fill="#FF481F"/>
<path d="M158.783 37.4279C158.783 38.6815 158.748 39.6217 158.678 40.2485H134.18C134.25 42.7906 134.807 44.9322 135.852 46.6734C136.896 48.4145 138.272 49.7204 139.978 50.5909C141.684 51.4615 143.548 51.8968 145.567 51.8968C148.353 51.8968 150.686 51.2178 152.567 49.8597C154.447 48.4667 155.631 46.5863 156.119 44.2183H158.574C158.016 47.1086 156.589 49.4592 154.29 51.27C151.992 53.046 149.084 53.934 145.567 53.934C142.921 53.934 140.553 53.342 138.463 52.158C136.374 50.974 134.737 49.2851 133.553 47.0912C132.369 44.8626 131.777 42.2682 131.777 39.3083C131.777 36.3483 132.352 33.7714 133.501 31.5776C134.685 29.3837 136.322 27.7122 138.411 26.5631C140.501 25.3791 142.886 24.7871 145.567 24.7871C148.283 24.7871 150.634 25.3791 152.619 26.5631C154.639 27.7122 156.171 29.2619 157.216 31.2119C158.26 33.1272 158.783 35.1992 158.783 37.4279ZM156.432 38.3158C156.536 35.8086 156.084 33.6844 155.074 31.9432C154.099 30.2021 152.758 28.9136 151.052 28.0779C149.346 27.2073 147.5 26.772 145.515 26.772C143.53 26.772 141.684 27.2073 139.978 28.0779C138.307 28.9136 136.931 30.2021 135.852 31.9432C134.807 33.6844 134.25 35.8086 134.18 38.3158H156.432Z" fill="#FF481F"/>
<path d="M116.728 53.934C113.56 53.934 110.965 53.2375 108.946 51.8446C106.961 50.4517 105.846 48.4667 105.603 45.8898H108.005C108.179 47.7355 109.015 49.198 110.513 50.2775C112.045 51.3571 114.117 51.8968 116.728 51.8968C118.888 51.8968 120.594 51.3571 121.847 50.2775C123.136 49.1632 123.78 47.8051 123.78 46.2032C123.78 45.0889 123.432 44.1835 122.735 43.4871C122.074 42.7558 121.238 42.1986 120.228 41.8155C119.218 41.4325 117.843 41.0146 116.102 40.5619C114.012 40.0048 112.323 39.465 111.035 38.9427C109.746 38.3855 108.65 37.5671 107.744 36.4876C106.839 35.4081 106.386 33.963 106.386 32.1522C106.386 30.8289 106.787 29.6101 107.587 28.4958C108.388 27.3466 109.503 26.4412 110.93 25.7796C112.358 25.1179 113.977 24.7871 115.788 24.7871C118.748 24.7871 121.134 25.5358 122.944 27.0332C124.79 28.4958 125.782 30.5329 125.922 33.1446H123.571C123.467 31.2642 122.735 29.732 121.377 28.548C120.019 27.364 118.139 26.772 115.736 26.772C113.716 26.772 112.045 27.2944 110.722 28.3391C109.398 29.3837 108.737 30.6548 108.737 32.1522C108.737 33.4754 109.102 34.555 109.834 35.3907C110.6 36.1916 111.522 36.8185 112.602 37.2712C113.716 37.689 115.179 38.1417 116.99 38.6292C118.975 39.1516 120.559 39.6739 121.743 40.1963C122.962 40.6838 123.989 41.4151 124.825 42.3901C125.661 43.3303 126.078 44.6014 126.078 46.2032C126.078 47.6658 125.678 48.9891 124.877 50.1731C124.076 51.357 122.962 52.2799 121.534 52.9415C120.106 53.6031 118.504 53.934 116.728 53.934Z" fill="#FF481F"/>
<path d="M70.666 39.3083C70.666 36.3832 71.2406 33.8237 72.3898 31.6298C73.5737 29.436 75.193 27.7471 77.2476 26.5631C79.3369 25.3791 81.7049 24.7871 84.3515 24.7871C87.3462 24.7871 89.8883 25.5184 91.9777 26.981C94.0671 28.4435 95.5296 30.3066 96.3654 32.57V25.1527H98.7159V53.5161H96.3654V46.0465C95.5296 48.3449 94.0497 50.2427 91.9255 51.7401C89.8361 53.2027 87.3114 53.934 84.3515 53.934C81.7049 53.934 79.3369 53.342 77.2476 52.158C75.193 50.9392 73.5737 49.2328 72.3898 47.039C71.2406 44.8103 70.666 42.2334 70.666 39.3083ZM96.3654 39.3083C96.3654 36.8359 95.843 34.6594 94.7984 32.779C93.7885 30.8637 92.3956 29.4012 90.6196 28.3913C88.8436 27.3466 86.8587 26.8243 84.6649 26.8243C82.3665 26.8243 80.3468 27.3292 78.6057 28.3391C76.8645 29.3141 75.5064 30.7418 74.5314 32.6223C73.5563 34.5027 73.0688 36.7314 73.0688 39.3083C73.0688 41.8852 73.5563 44.1139 74.5314 45.9943C75.5064 47.8748 76.8645 49.3199 78.6057 50.3298C80.3816 51.3396 82.4014 51.8446 84.6649 51.8446C86.8587 51.8446 88.8436 51.3396 90.6196 50.3298C92.4304 49.2851 93.8407 47.8225 94.8506 45.9421C95.8604 44.0268 96.3654 41.8155 96.3654 39.3083Z" fill="#FF481F"/>
<path d="M65.0248 37.4279C65.0248 38.6815 64.9899 39.6217 64.9203 40.2485H40.4223C40.492 42.7906 41.0491 44.9322 42.0938 46.6734C43.1385 48.4145 44.514 49.7204 46.2203 50.5909C47.9267 51.4615 49.7897 51.8968 51.8094 51.8968C54.5953 51.8968 56.9284 51.2178 58.8089 49.8597C60.6893 48.4667 61.8733 46.5863 62.3608 44.2183H64.8158C64.2586 47.1086 62.8309 49.4592 60.5326 51.27C58.2343 53.046 55.3266 53.934 51.8094 53.934C49.1629 53.934 46.7949 53.342 44.7055 52.158C42.6162 50.974 40.9795 49.2851 39.7955 47.0912C38.6115 44.8626 38.0195 42.2682 38.0195 39.3083C38.0195 36.3483 38.5941 33.7714 39.7433 31.5776C40.9272 29.3837 42.5639 27.7122 44.6533 26.5631C46.7427 25.3791 49.1281 24.7871 51.8094 24.7871C54.5256 24.7871 56.8762 25.3791 58.8611 26.5631C60.8808 27.7122 62.413 29.2619 63.4577 31.2119C64.5024 33.1272 65.0248 35.1992 65.0248 37.4279ZM62.6742 38.3158C62.7787 35.8086 62.326 33.6844 61.3161 31.9432C60.3411 30.2021 59.0004 28.9136 57.2941 28.0779C55.5877 27.2073 53.7421 26.772 51.7572 26.772C49.7723 26.772 47.9267 27.2073 46.2203 28.0779C44.5488 28.9136 43.1733 30.2021 42.0938 31.9432C41.0491 33.6844 40.492 35.8086 40.4223 38.3158H62.6742Z" fill="#FF481F"/>
<path d="M30.8642 14.8628V53.5163H28.5137V14.8628H30.8642Z" fill="#FF481F"/>
<path d="M22.1997 27.1901C22.1997 30.4286 21.1898 32.9533 19.1701 34.7641C17.1503 36.5401 14.1555 37.428 10.1857 37.428H2.35055V53.5163H0V16.8477H10.1857C14.2252 16.8477 17.2374 17.7879 19.2223 19.6683C21.2072 21.5139 22.1997 24.0212 22.1997 27.1901ZM10.1857 35.3387C16.628 35.3387 19.8491 32.6225 19.8491 27.1901C19.8491 24.5087 19.083 22.4716 17.5508 21.0786C16.0186 19.6509 13.5636 18.937 10.1857 18.937H2.35055V35.3387H10.1857Z" fill="#FF481F"/>
</svg>
