<svg width="392" height="366" viewBox="0 0 392 366" fill="none" xmlns="http://www.w3.org/2000/svg">
<g filter="url(#filter0_d_81_112)">
<path d="M180.95 80.4H207.2V292.5C207.2 308.95 203 316.3 191.1 320.5C179.2 324.7 158.9 325.05 128.45 325.05C127.05 317.7 122.5 307.2 118.65 299.85C143.15 300.9 165.55 300.55 172.2 300.2C178.85 299.85 180.95 298.1 180.95 292.15V80.4ZM84.7 21.95H284.9V45.75H84.7V21.95ZM276.5 21.95H283.15L288.75 20.55L306.95 33.5C280.35 60.45 239.05 87.4 200.9 103.5C197.4 98.25 190.4 90.9 185.85 86.7C219.8 72.7 257.95 47.15 276.5 26.85V21.95ZM137.2 121.7H255.5V143.4H137.2V121.7ZM41.3 97.2H119.7V121.35H41.3V97.2ZM130.2 177.35H261.1V199.05H130.2V177.35ZM110.25 234.75H281.4V256.8H110.25V234.75ZM334.25 94.4L354.9 111.55C335.65 133.95 310.1 160.55 290.85 177.7L274.05 163C292.95 145.85 319.2 116.1 334.25 94.4ZM278.6 86.35C290.5 166.15 315.7 238.25 361.2 272.55C354.9 277.8 345.8 287.6 341.25 294.95C293.3 254.35 268.1 178.75 254.45 90.2L278.6 86.35ZM110.25 97.2H115.5L120.4 96.15L136.85 102.45C123.2 190.65 90.65 258.2 50.4 294.6C46.2 289 36.4 279.2 30.45 275.35C69.65 242.1 99.05 180.15 110.25 103.15V97.2Z" fill="black"/>
</g>
<defs>
<filter id="filter0_d_81_112" x="0.450195" y="0.549988" width="390.75" height="364.5" filterUnits="userSpaceOnUse" color-interpolation-filters="sRGB">
<feFlood flood-opacity="0" result="BackgroundImageFix"/>
<feColorMatrix in="SourceAlpha" type="matrix" values="0 0 0 0 0 0 0 0 0 0 0 0 0 0 0 0 0 0 127 0" result="hardAlpha"/>
<feOffset dy="10"/>
<feGaussianBlur stdDeviation="15"/>
<feComposite in2="hardAlpha" operator="out"/>
<feColorMatrix type="matrix" values="0 0 0 0 0 0 0 0 0 0 0 0 0 0 0 0 0 0 0.25 0"/>
<feBlend mode="normal" in2="BackgroundImageFix" result="effect1_dropShadow_81_112"/>
<feBlend mode="normal" in="SourceGraphic" in2="effect1_dropShadow_81_112" result="shape"/>
</filter>
</defs>
</svg>
