<svg width="24" height="24" viewBox="0 0 24 24" fill="none" xmlns="http://www.w3.org/2000/svg">
<mask id="path-1-inside-1_96_172" fill="white">
<path d="M0.283203 8.43082C0.283203 6.89337 0.619054 5.52011 1.29076 4.31104C1.96246 3.08705 2.88045 2.13921 4.04474 1.4675C5.20902 0.780876 6.50764 0.437561 7.94061 0.437561C9.68703 0.437561 11.1797 0.855509 12.4186 1.69141C13.336 2.29204 14.0695 3.07644 14.6193 4.04461C14.9199 4.57381 14.5004 5.18426 13.8918 5.18426V5.18426C13.5417 5.18426 13.2311 4.97153 13.0649 4.66341C12.6259 3.84926 12.0223 3.19444 11.2543 2.69896C10.3438 2.10189 9.23923 1.80336 7.94061 1.80336C6.79125 1.80336 5.75384 2.07204 4.82839 2.6094C3.91786 3.14676 3.20138 3.92295 2.67894 4.93797C2.15651 5.93806 1.89529 7.10234 1.89529 8.43082C1.89529 9.7593 2.15651 10.9236 2.67894 11.9237C3.20138 12.9238 3.91786 13.6925 4.82839 14.2298C5.75384 14.7672 6.79125 15.0359 7.94061 15.0359C9.23923 15.0359 10.3438 14.7448 11.2543 14.1627C12.0216 13.6677 12.6247 13.0188 13.0636 12.216C13.2307 11.9105 13.54 11.6998 13.8882 11.6998V11.6998C14.4976 11.6998 14.9166 12.312 14.6129 12.8403C14.0638 13.7953 13.3324 14.5719 12.4186 15.1702C11.1648 15.9912 9.67211 16.4017 7.94061 16.4017C6.50764 16.4017 5.20902 16.0658 4.04474 15.3941C2.88045 14.7075 1.96246 13.7597 1.29076 12.5506C0.619055 11.3415 0.283203 9.96827 0.283203 8.43082Z"/>
</mask>
<path d="M1.29076 4.31104L3.03909 5.28234L3.04409 5.27324L1.29076 4.31104ZM4.04474 1.4675L5.04418 3.19988L5.05247 3.1951L5.06071 3.19024L4.04474 1.4675ZM12.4186 1.69141L11.3 3.34933L11.3115 3.35707L11.3231 3.36464L12.4186 1.69141ZM11.2543 2.69896L10.1576 4.37145L10.1638 4.37552L10.1701 4.37955L11.2543 2.69896ZM4.82839 2.6094L3.82412 0.879821L3.81799 0.883381L3.81188 0.886984L4.82839 2.6094ZM2.67894 4.93797L4.45167 5.86402L4.45721 5.85325L2.67894 4.93797ZM2.67894 11.9237L0.906243 12.8497L0.906244 12.8497L2.67894 11.9237ZM4.82839 14.2298L3.81188 15.9523L3.81799 15.9559L3.82412 15.9594L4.82839 14.2298ZM11.2543 14.1627L12.3317 15.8477L12.3386 15.8433L11.2543 14.1627ZM12.4186 15.1702L11.3231 13.497L11.3231 13.497L12.4186 15.1702ZM4.04474 15.3941L3.02877 17.1169L3.03701 17.1217L3.04529 17.1265L4.04474 15.3941ZM1.29076 12.5506L-0.457558 13.5219L-0.457558 13.5219L1.29076 12.5506ZM13.0649 4.66341L11.3046 5.61273L13.0649 4.66341ZM2.2832 8.43082C2.2832 7.19454 2.55027 6.16218 3.03907 5.28233L-0.457558 3.33976C-1.31216 4.87804 -1.7168 6.59219 -1.7168 8.43082L2.2832 8.43082ZM3.04409 5.27324C3.54685 4.3571 4.20955 3.68139 5.04418 3.19988L3.04529 -0.264867C1.55135 0.597022 0.378069 1.817 -0.462577 3.34885L3.04409 5.27324ZM5.06071 3.19024C5.89849 2.69616 6.84265 2.43756 7.94061 2.43756L7.94061 -1.56244C6.17264 -1.56244 4.51955 -1.13441 3.02877 -0.255227L5.06071 3.19024ZM7.94061 2.43756C9.35724 2.43756 10.4443 2.77201 11.3 3.34933L13.5372 0.0334765C11.9151 -1.06099 10.0168 -1.56244 7.94061 -1.56244L7.94061 2.43756ZM11.3231 3.36464C11.9702 3.78837 12.4849 4.33607 12.8802 5.03224L16.3585 3.05698C15.6542 1.81681 14.7017 0.795716 13.5142 0.0181684L11.3231 3.36464ZM14.8253 3.7141C14.2281 2.60683 13.3936 1.699 12.3386 1.01837L10.1701 4.37955C10.6511 4.68989 11.0236 5.0917 11.3046 5.61273L14.8253 3.7141ZM12.3511 1.02647C11.0563 0.177448 9.55269 -0.196644 7.94061 -0.196644L7.94061 3.80336C8.92578 3.80336 9.63132 4.02633 10.1576 4.37145L12.3511 1.02647ZM7.94061 -0.196644C6.46551 -0.196644 5.07716 0.152245 3.82412 0.879821L5.83266 4.33898C6.43053 3.99183 7.11699 3.80336 7.94061 3.80336L7.94061 -0.196644ZM3.81188 0.886984C2.55041 1.63146 1.58146 2.69999 0.90067 4.02268L4.45721 5.85325C4.82129 5.14591 5.2853 4.66206 5.8449 4.33181L3.81188 0.886984ZM0.906243 4.01193C0.210106 5.34453 -0.104711 6.83698 -0.104711 8.43082L3.89529 8.43082C3.89529 7.3677 4.10291 6.53158 4.45164 5.864L0.906243 4.01193ZM-0.104711 8.43082C-0.104711 10.0247 0.210107 11.5171 0.906243 12.8497L4.45164 10.9976C4.10291 10.3301 3.89529 9.49394 3.89529 8.43082L-0.104711 8.43082ZM0.906244 12.8497C1.58938 14.1574 2.55811 15.2123 3.81188 15.9523L5.8449 12.5074C5.27761 12.1726 4.81337 11.6901 4.45164 10.9976L0.906244 12.8497ZM3.82412 15.9594C5.07716 16.687 6.46552 17.0359 7.94061 17.0359L7.94061 13.0359C7.11699 13.0359 6.43052 12.8474 5.83266 12.5003L3.82412 15.9594ZM7.94061 17.0359C9.54328 17.0359 11.0397 16.6737 12.3317 15.8477L10.177 12.4776C9.64795 12.8159 8.93519 13.0359 7.94061 13.0359L7.94061 17.0359ZM12.3386 15.8433C13.3866 15.1672 14.2199 14.2701 14.8184 13.1755L11.3088 11.2565C11.0295 11.7674 10.6566 12.1682 10.1701 12.4821L12.3386 15.8433ZM12.879 11.8434C12.4852 12.5284 11.9715 13.0724 11.3231 13.497L13.5142 16.8435C14.6932 16.0715 15.6424 15.0622 16.3467 13.8372L12.879 11.8434ZM11.3231 13.497C10.4431 14.0732 9.34486 14.4017 7.94061 14.4017L7.94061 18.4017C9.99936 18.4017 11.8865 17.9092 13.5142 16.8435L11.3231 13.497ZM7.94061 14.4017C6.83448 14.4017 5.88441 14.1465 5.04418 13.6618L3.04529 17.1265C4.53363 17.9852 6.18081 18.4017 7.94061 18.4017L7.94061 14.4017ZM5.06071 13.6714C4.21046 13.17 3.54211 12.4848 3.03907 11.5793L-0.457558 13.5219C0.382813 15.0345 1.55044 16.245 3.02877 17.1169L5.06071 13.6714ZM3.03907 11.5793C2.55027 10.6995 2.2832 9.6671 2.2832 8.43082L-1.7168 8.43082C-1.7168 10.2694 -1.31216 11.9836 -0.457558 13.5219L3.03907 11.5793ZM13.8882 13.6998C13.5068 13.6998 13.1385 13.5028 12.918 13.1648C12.6811 12.8018 12.6282 12.2797 12.879 11.8434L16.3467 13.8372C17.5571 11.7319 15.7458 9.69977 13.8882 9.69977L13.8882 13.6998ZM14.8184 13.1755C14.6881 13.4139 14.3761 13.6998 13.8882 13.6998L13.8882 9.69977C12.7039 9.69977 11.7733 10.4071 11.3088 11.2565L14.8184 13.1755ZM13.8918 3.18426C14.3815 3.18426 14.695 3.47247 14.8253 3.7141L11.3046 5.61273C11.7672 6.4706 12.702 7.18426 13.8918 7.18426L13.8918 3.18426ZM12.8802 5.03224C12.6327 4.59639 12.6874 4.07722 12.9237 3.71657C13.144 3.38045 13.5111 3.18426 13.8918 3.18426L13.8918 7.18426C15.7485 7.18426 17.5527 5.15987 16.3585 3.05698L12.8802 5.03224Z" fill="#FF481F" mask="url(#path-1-inside-1_96_172)"/>
<mask id="path-3-inside-2_96_172" fill="white">
<path d="M23.1367 15.2129C23.1367 16.7503 22.8009 18.1236 22.1292 19.3327C21.4575 20.5567 20.5395 21.5045 19.3752 22.1762C18.2109 22.8628 16.9123 23.2061 15.4793 23.2061C13.7329 23.2061 12.2402 22.7882 11.0013 21.9523C10.084 21.3517 9.35039 20.5673 8.80058 19.5991C8.50006 19.0699 8.91953 18.4595 9.52812 18.4595V18.4595C9.87819 18.4595 10.1888 18.6722 10.355 18.9803C10.7941 19.7944 11.3976 20.4493 12.1656 20.9447C13.0761 21.5418 14.1807 21.8404 15.4793 21.8404C16.6287 21.8404 17.6661 21.5717 18.5915 21.0343C19.5021 20.4969 20.2185 19.7208 20.741 18.7057C21.2634 17.7057 21.5246 16.5414 21.5246 15.2129C21.5246 13.8844 21.2634 12.7201 20.741 11.72C20.2185 10.7199 19.5021 9.95122 18.5915 9.41386C17.6661 8.8765 16.6287 8.60782 15.4793 8.60782C14.1807 8.60782 13.0761 8.89889 12.1656 9.48103C11.3983 9.97603 10.7952 10.6249 10.3563 11.4277C10.1892 11.7332 9.87992 11.9439 9.5317 11.9439V11.9439C8.92231 11.9439 8.50331 11.3317 8.80705 10.8034C9.35614 9.84841 10.0876 9.07176 11.0013 8.47348C12.2551 7.65251 13.7478 7.24202 15.4793 7.24202C16.9123 7.24202 18.2109 7.57787 19.3752 8.24958C20.5395 8.93621 21.4575 9.88405 22.1292 11.0931C22.8009 12.3022 23.1367 13.6754 23.1367 15.2129Z"/>
</mask>
<path d="M22.1292 19.3327L20.3808 18.3614L20.3758 18.3705L22.1292 19.3327ZM19.3752 22.1762L18.3757 20.4438L18.3675 20.4486L18.3592 20.4535L19.3752 22.1762ZM11.0013 21.9523L12.1199 20.2944L12.1084 20.2866L12.0969 20.2791L11.0013 21.9523ZM12.1656 20.9447L13.2623 19.2723L13.2561 19.2682L13.2498 19.2642L12.1656 20.9447ZM18.5915 21.0343L19.5958 22.7639L19.6019 22.7603L19.608 22.7567L18.5915 21.0343ZM20.741 18.7057L18.9683 17.7797L18.9627 17.7905L20.741 18.7057ZM20.741 11.72L22.5137 10.794L22.5137 10.794L20.741 11.72ZM18.5915 9.41386L19.608 7.69144L19.6019 7.68784L19.5958 7.68428L18.5915 9.41386ZM12.1656 9.48103L11.0882 7.79597L11.0813 7.80044L12.1656 9.48103ZM11.0013 8.47348L12.0969 10.1467L12.0969 10.1467L11.0013 8.47348ZM19.3752 8.24958L20.3912 6.52685L20.3829 6.52199L20.3746 6.51721L19.3752 8.24958ZM22.1292 11.0931L23.8775 10.1218L23.8775 10.1218L22.1292 11.0931ZM10.355 18.9803L12.1153 18.031L10.355 18.9803ZM21.1367 15.2129C21.1367 16.4492 20.8697 17.4815 20.3809 18.3614L23.8775 20.3039C24.7321 18.7657 25.1367 17.0515 25.1367 15.2129L21.1367 15.2129ZM20.3758 18.3705C19.8731 19.2866 19.2104 19.9623 18.3757 20.4438L20.3746 23.9086C21.8686 23.0467 23.0419 21.8267 23.8825 20.2949L20.3758 18.3705ZM18.3592 20.4535C17.5214 20.9476 16.5773 21.2061 15.4793 21.2061L15.4793 25.2061C17.2473 25.2061 18.9004 24.7781 20.3912 23.8989L18.3592 20.4535ZM15.4793 21.2061C14.0627 21.2061 12.9756 20.8717 12.1199 20.2944L9.8827 23.6102C11.5048 24.7047 13.4031 25.2061 15.4793 25.2061L15.4793 21.2061ZM12.0969 20.2791C11.4497 19.8553 10.9351 19.3076 10.5397 18.6115L7.06145 20.5867C7.76572 21.8269 8.7182 22.848 9.90573 23.6255L12.0969 20.2791ZM8.59466 19.9296C9.19179 21.0369 10.0264 21.9447 11.0813 22.6253L13.2498 19.2642C12.7688 18.9538 12.3963 18.552 12.1153 18.031L8.59466 19.9296ZM11.0689 22.6172C12.3636 23.4663 13.8672 23.8404 15.4793 23.8404L15.4793 19.8404C14.4941 19.8404 13.7886 19.6174 13.2623 19.2723L11.0689 22.6172ZM15.4793 23.8404C16.9544 23.8404 18.3428 23.4915 19.5958 22.7639L17.5873 19.3047C16.9894 19.6519 16.3029 19.8404 15.4793 19.8404L15.4793 23.8404ZM19.608 22.7567C20.8695 22.0122 21.8385 20.9437 22.5193 19.621L18.9627 17.7905C18.5986 18.4978 18.1346 18.9816 17.575 19.3119L19.608 22.7567ZM22.5137 19.6318C23.2098 18.2992 23.5246 16.8067 23.5246 15.2129L19.5246 15.2129C19.5246 16.276 19.317 17.1121 18.9683 17.7797L22.5137 19.6318ZM23.5246 15.2129C23.5246 13.6191 23.2098 12.1266 22.5137 10.794L18.9683 12.6461C19.317 13.3136 19.5246 14.1498 19.5246 15.2129L23.5246 15.2129ZM22.5137 10.794C21.8305 9.48628 20.8618 8.43138 19.608 7.69144L17.575 11.1363C18.1423 11.4711 18.6066 11.9536 18.9683 12.6461L22.5137 10.794ZM19.5958 7.68428C18.3428 6.95671 16.9544 6.60782 15.4793 6.60782L15.4793 10.6078C16.3029 10.6078 16.9894 10.7963 17.5873 11.1434L19.5958 7.68428ZM15.4793 6.60782C13.8766 6.60782 12.3803 6.96996 11.0883 7.79599L13.2429 11.1661C13.772 10.8278 14.4847 10.6078 15.4793 10.6078L15.4793 6.60782ZM11.0813 7.80044C10.0334 8.47655 9.20001 9.37356 8.60148 10.4682L12.1111 12.3872C12.3905 11.8763 12.7633 11.4755 13.2498 11.1616L11.0813 7.80044ZM10.5409 11.8003C10.9347 11.1153 11.4484 10.5713 12.0969 10.1467L9.90573 6.80024C8.72669 7.57223 7.77755 8.5815 7.07321 9.80654L10.5409 11.8003ZM12.0969 10.1467C12.9769 9.57052 14.0751 9.24202 15.4793 9.24202L15.4793 5.24202C13.4206 5.24202 11.5334 5.73449 9.90573 6.80024L12.0969 10.1467ZM15.4793 9.24202C16.5854 9.24202 17.5355 9.4972 18.3757 9.98195L20.3746 6.51721C18.8863 5.65855 17.2391 5.24202 15.4793 5.24202L15.4793 9.24202ZM18.3592 9.97231C19.2095 10.4737 19.8778 11.1589 20.3809 12.0644L23.8775 10.1218C23.0371 8.60916 21.8695 7.39868 20.3912 6.52685L18.3592 9.97231ZM20.3809 12.0644C20.8697 12.9442 21.1367 13.9766 21.1367 15.2129L25.1367 15.2129C25.1367 13.3743 24.7321 11.6601 23.8775 10.1218L20.3809 12.0644ZM9.5317 9.94394C9.91317 9.94394 10.2814 10.1409 10.5019 10.4789C10.7388 10.8419 10.7917 11.364 10.5409 11.8003L7.07321 9.80654C5.8628 11.9118 7.67416 13.9439 9.5317 13.9439L9.5317 9.94394ZM8.60148 10.4682C8.7318 10.2299 9.04384 9.94394 9.5317 9.94394L9.5317 13.9439C10.716 13.9439 11.6467 13.2366 12.1111 12.3872L8.60148 10.4682ZM9.52812 20.4595C9.03841 20.4595 8.72496 20.1712 8.59466 19.9296L12.1153 18.031C11.6527 17.1731 10.718 16.4595 9.52812 16.4595L9.52812 20.4595ZM10.5397 18.6115C10.7872 19.0473 10.7326 19.5665 10.4962 19.9271C10.2759 20.2633 9.90885 20.4595 9.52812 20.4595L9.52812 16.4595C7.67139 16.4595 5.86725 18.4838 7.06145 20.5867L10.5397 18.6115Z" fill="#FF481F" mask="url(#path-3-inside-2_96_172)"/>
</svg>
