<svg width="30" height="40" viewBox="0 0 30 40" fill="none" xmlns="http://www.w3.org/2000/svg">
<path d="M1.09375 7.48438C1.09375 3.35156 4.44531 0 8.57813 0H21.4219C25.5547 0 28.9062 3.35156 28.9062 7.48438C28.9062 10.1016 27.5625 12.4062 25.5234 13.7422C27.5625 15.0781 28.9062 17.3828 28.9062 20C28.9062 24.1328 25.5547 27.4844 21.4219 27.4844H21.2578C19.3203 27.4844 17.5547 26.75 16.2266 25.5391V32.4375C16.2266 36.625 12.7891 40 8.61719 40C4.49219 40 1.09375 36.6563 1.09375 32.5156C1.09375 29.8984 2.4375 27.5938 4.46875 26.2578C2.4375 24.9219 1.09375 22.6172 1.09375 20C1.09375 17.3828 2.4375 15.0781 4.46875 13.7422C2.4375 12.4062 1.09375 10.1016 1.09375 7.48438ZM13.7734 14.9688H8.57813C5.79688 14.9688 3.54688 17.2188 3.54688 20C3.54688 22.7656 5.78125 25.0156 8.54688 25.0312C8.55469 25.0312 8.57031 25.0312 8.57813 25.0312H13.7734V14.9688ZM16.2266 20C16.2266 22.7812 18.4766 25.0312 21.2578 25.0312H21.4219C24.1953 25.0312 26.4531 22.7812 26.4531 20C26.4531 17.2188 24.1953 14.9688 21.4219 14.9688H21.2578C18.4766 14.9688 16.2266 17.2188 16.2266 20ZM8.57813 27.4844C8.57031 27.4844 8.55469 27.4844 8.54688 27.4844C5.78125 27.5 3.54688 29.75 3.54688 32.5156C3.54688 35.2891 5.82813 37.5469 8.61719 37.5469C11.4531 37.5469 13.7734 35.25 13.7734 32.4375V27.4844H8.57813ZM8.57813 2.45312C5.79688 2.45312 3.54688 4.70313 3.54688 7.48438C3.54688 10.2656 5.79688 12.5156 8.57813 12.5156H13.7734V2.45312H8.57813ZM16.2266 12.5156H21.4219C24.1953 12.5156 26.4531 10.2656 26.4531 7.48438C26.4531 4.70313 24.1953 2.45312 21.4219 2.45312H16.2266V12.5156Z" fill="#FF481F"/>
</svg>
