<svg width="30" height="30" viewBox="0 0 30 30" fill="none" xmlns="http://www.w3.org/2000/svg">
<g clip-path="url(#clip0_153_192)">
<path d="M26.7857 0H3.21429C1.43973 0 0 1.43973 0 3.21429V26.7857C0 28.5603 1.43973 30 3.21429 30H26.7857C28.5603 30 30 28.5603 30 26.7857V3.21429C30 1.43973 28.5603 0 26.7857 0ZM16.3259 23.3973C16.3259 26.317 14.6116 27.6495 12.1138 27.6495C9.85714 27.6495 8.55134 26.4844 7.8817 25.0714L10.1786 23.6853C10.6205 24.4687 11.0223 25.1317 11.9933 25.1317C12.9174 25.1317 13.5067 24.7701 13.5067 23.3571V13.7746H16.3259V23.3973ZM22.9955 27.6495C20.3772 27.6495 18.683 26.404 17.8594 24.7701L20.1562 23.4442C20.7589 24.4286 21.5491 25.1585 22.9353 25.1585C24.1004 25.1585 24.8504 24.5759 24.8504 23.7656C24.8504 22.8013 24.0871 22.4598 22.7946 21.8906L22.0915 21.5893C20.0558 20.7254 18.7098 19.6339 18.7098 17.3371C18.7098 15.221 20.3237 13.6138 22.8348 13.6138C24.6295 13.6138 25.9152 14.2366 26.8393 15.8705L24.6429 17.2768C24.1607 16.4129 23.6384 16.0714 22.8281 16.0714C22.0045 16.0714 21.4821 16.5937 21.4821 17.2768C21.4821 18.1205 22.0045 18.4621 23.2165 18.9911L23.9196 19.2924C26.317 20.317 27.6629 21.3683 27.6629 23.7254C27.6629 26.2567 25.6674 27.6495 22.9955 27.6495Z" fill="#FF481F"/>
</g>
<defs>
<clipPath id="clip0_153_192">
<rect width="30" height="30" fill="white"/>
</clipPath>
</defs>
</svg>
