<svg width="30" height="35" viewBox="0 0 30 35" fill="none" xmlns="http://www.w3.org/2000/svg">
<g clip-path="url(#clip0_153_188)">
<path d="M15 34.0179C14.5513 34.0179 14.096 33.8974 13.7009 33.6697L9.5692 31.2255C8.95313 30.8773 9.25447 30.7567 9.45536 30.6898C10.279 30.4018 10.4464 30.3416 11.3237 29.8393C11.4174 29.7857 11.5379 29.8058 11.6317 29.8661L14.8058 31.7478C14.9196 31.8148 15.0804 31.8148 15.1875 31.7478L27.5558 24.6094C27.6696 24.5424 27.7433 24.4085 27.7433 24.2746V9.9978C27.7433 9.85718 27.6696 9.72994 27.5491 9.65628L15.1875 2.52459C15.0737 2.45762 14.9196 2.45762 14.8058 2.52459L2.45089 9.66298C2.33036 9.72995 2.2567 9.86387 2.2567 10.0045V24.2746C2.2567 24.4085 2.33036 24.5424 2.45089 24.6027L5.83929 26.5581C7.6808 27.4755 8.8058 26.3974 8.8058 25.3058V11.2166C8.8058 11.0157 8.96652 10.8616 9.16741 10.8616H10.7344C10.9286 10.8616 11.096 11.0157 11.096 11.2166V25.3125C11.096 27.7634 9.7567 29.1697 7.43304 29.1697C6.71652 29.1697 6.15402 29.1697 4.58705 28.3929L1.34598 26.5246C0.542411 26.0625 0.046875 25.1987 0.046875 24.2679V9.9978C0.046875 9.0737 0.542411 8.20316 1.34598 7.74111L13.7009 0.602713C14.4844 0.160749 15.5223 0.160749 16.2991 0.602713L28.6674 7.7478C29.471 8.20986 29.9665 9.07369 29.9665 10.0045V24.2746C29.9665 25.1987 29.471 26.0625 28.6674 26.5313L16.2991 33.6697C15.904 33.8974 15.4554 34.0179 15 34.0179ZM24.9844 19.9487C24.9844 17.2768 23.1763 16.567 19.3795 16.0648C15.5357 15.5558 15.1473 15.2947 15.1473 14.3974C15.1473 13.6541 15.4754 12.663 18.3214 12.663C20.8594 12.663 21.7969 13.2121 22.1853 14.9264C22.2188 15.0871 22.3661 15.2076 22.5335 15.2076H24.1406C24.2411 15.2076 24.3348 15.1674 24.4018 15.0938C24.4688 15.0201 24.5022 14.9197 24.4955 14.8192C24.2478 11.8661 22.2857 10.4933 18.3214 10.4933C14.7924 10.4933 12.6897 11.9799 12.6897 14.4777C12.6897 17.1831 14.7857 17.9331 18.1674 18.2679C22.2188 18.663 22.5335 19.259 22.5335 20.0558C22.5335 21.4353 21.4219 22.0246 18.817 22.0246C15.5424 22.0246 14.8259 21.2009 14.5848 19.5737C14.558 19.3996 14.4107 19.2724 14.2299 19.2724H12.6295C12.4286 19.2724 12.2746 19.4331 12.2746 19.6273C12.2746 21.7099 13.4063 24.1942 18.8237 24.1942C22.7344 24.1875 24.9844 22.6407 24.9844 19.9487Z" fill="#FF481F"/>
</g>
<defs>
<clipPath id="clip0_153_188">
<rect width="30" height="34.2857" fill="white"/>
</clipPath>
</defs>
</svg>
