<svg width="30" height="30" viewBox="0 0 30 30" fill="none" xmlns="http://www.w3.org/2000/svg">
<path d="M23.7278 10.1069C24.2161 7.74151 24.3209 5.92728 24.0053 4.6099C23.8175 3.8264 23.4743 3.18722 22.9524 2.72607C22.4015 2.23922 21.7048 2.00032 20.9221 2.00032C19.6309 2.00032 18.2734 2.58852 16.8228 3.70596C16.2311 4.16174 15.617 4.71112 14.9792 5.35439C14.9285 5.28911 14.8711 5.22753 14.8071 5.17062C13.0041 3.56552 11.486 2.56825 10.1876 2.18373C9.4156 1.9551 8.69076 1.93332 8.0307 2.15522C7.33395 2.38944 6.77879 2.87362 6.38711 3.55181C5.74069 4.67105 5.57022 6.14175 5.81122 7.95769C5.90945 8.69788 6.07739 9.50417 6.31467 10.3778C6.22515 10.3886 6.13541 10.4084 6.04657 10.4378C3.75885 11.1951 2.13891 12.0095 1.15816 12.9403C0.574632 13.494 0.193585 14.1105 0.0558387 14.7929C-0.0895525 15.5132 0.0522156 16.2357 0.443442 16.9134C1.08865 18.031 2.275 18.9125 3.96512 19.6106C4.64376 19.891 5.41159 20.1449 6.26949 20.3732C6.23034 20.4615 6.19997 20.5553 6.17966 20.6536C5.69133 23.019 5.58654 24.8333 5.90219 26.1506C6.08992 26.9341 6.43314 27.5733 6.95503 28.0345C7.506 28.5213 8.20262 28.7602 8.98534 28.7602C10.2766 28.7602 11.634 28.172 13.0847 27.0546C13.6827 26.5939 14.3035 26.0377 14.9486 25.3856C15.015 25.4893 15.0965 25.5857 15.1929 25.6715C16.9959 27.2766 18.514 28.2739 19.8124 28.6584C20.5844 28.887 21.3092 28.9088 21.9693 28.6869C22.666 28.4527 23.2212 27.9685 23.6129 27.2903C24.2593 26.1711 24.4298 24.7004 24.1888 22.8844C24.087 22.1175 23.9104 21.2796 23.6593 20.3693C23.7575 20.3594 23.856 20.3387 23.9534 20.3064C26.2411 19.5491 27.8611 18.7347 28.8418 17.804C29.4254 17.2502 29.8064 16.6337 29.9442 15.9513C30.0896 15.231 29.9478 14.5085 29.5566 13.8309C28.9113 12.7132 27.725 11.8318 26.0349 11.1336C25.336 10.8449 24.5426 10.5842 23.6536 10.3507C23.6853 10.2732 23.7103 10.1918 23.7278 10.1069Z" fill="#FF481F"/>
<path fill-rule="evenodd" clip-rule="evenodd" d="M12.6942 10.5264H17.3065C17.5893 10.5264 17.8505 10.6776 17.9913 10.9229L20.3016 14.9492C20.4412 15.1926 20.4412 15.4917 20.3016 15.7351L17.9913 19.7614C17.8505 20.0067 17.5893 20.1579 17.3065 20.1579H12.6942C12.4114 20.1579 12.1502 20.0067 12.0094 19.7614L9.69909 15.7351C9.55946 15.4917 9.55946 15.1926 9.69909 14.9492L12.0094 10.9229C12.1502 10.6776 12.4114 10.5264 12.6942 10.5264ZM16.7349 11.5174C17.0178 11.5174 17.2791 11.6688 17.4198 11.9143L19.1594 14.9496C19.2987 15.1928 19.2987 15.4916 19.1594 15.7347L17.4198 18.77C17.2791 19.0155 17.0178 19.1669 16.7349 19.1669H13.2658C12.9829 19.1669 12.7216 19.0155 12.5809 18.77L10.8413 15.7347C10.702 15.4916 10.702 15.1928 10.8413 14.9496L12.5809 11.9143C12.7216 11.6688 12.9829 11.5174 13.2658 11.5174H16.7349ZM16.1179 12.6013H13.8828C13.6001 12.6013 13.339 12.7525 13.1982 12.9976L12.0772 14.9489C11.9373 15.1924 11.9373 15.4919 12.0772 15.7354L13.1982 17.6868C13.339 17.9319 13.6001 18.083 13.8828 18.083H16.1179C16.4006 18.083 16.6617 17.9319 16.8025 17.6868L17.9235 15.7354C18.0634 15.4919 18.0634 15.1924 17.9235 14.9489L16.8025 12.9976C16.6617 12.7525 16.4006 12.6013 16.1179 12.6013ZM15.524 13.6388C15.8065 13.6388 16.0674 13.7897 16.2083 14.0345L16.7342 14.9484C16.8745 15.1922 16.8745 15.4922 16.7342 15.7359L16.2083 16.6498C16.0674 16.8946 15.8065 17.0455 15.524 17.0455H14.4767C14.1942 17.0455 13.9333 16.8946 13.7924 16.6498L13.2665 15.7359C13.1262 15.4922 13.1262 15.1922 13.2665 14.9484L13.7924 14.0345C13.9333 13.7897 14.1942 13.6388 14.4767 13.6388H15.524ZM15.0005 14.6608C14.7567 14.6608 14.5317 14.7907 14.4099 15.0015C14.2881 15.2123 14.2881 15.472 14.4099 15.6828C14.5317 15.8936 14.7567 16.0235 15.0001 16.0235C15.244 16.0235 15.469 15.8936 15.5908 15.6828C15.7126 15.472 15.7126 15.2123 15.5908 15.0015C15.469 14.7907 15.244 14.6608 15.0005 14.6608ZM9.47363 15.3423H10.7001Z" fill="#F1EEE9"/>
<path fill-rule="evenodd" clip-rule="evenodd" d="M8.66234 17.5302C8.86939 17.4119 9.13221 17.4855 9.24935 17.6947L9.3243 17.828C9.92489 18.8921 10.5506 19.9022 11.2014 20.8582C11.9699 21.9872 12.8342 23.1301 13.7943 24.287C13.945 24.4686 13.9241 24.7386 13.7474 24.8944L13.6509 24.9792C10.476 27.7532 8.41249 28.3073 7.46042 26.6415C6.52916 25.012 6.86618 22.05 8.47147 17.7552C8.50707 17.66 8.57461 17.5803 8.66234 17.5302ZM22.1898 20.7961C22.4191 20.7556 22.6384 20.9067 22.6833 21.136L22.7075 21.261C23.4922 25.3677 22.9397 27.4211 21.0501 27.4211C19.2017 27.4211 16.849 25.6699 13.9917 22.1675C13.9283 22.0898 13.8941 21.9922 13.8949 21.8918C13.897 21.6549 14.0901 21.4644 14.3261 21.4665L14.4767 21.4676C15.6801 21.4741 16.8498 21.4324 17.9861 21.3423C19.3279 21.236 20.7292 21.0539 22.1898 20.7961ZM23.2753 12.0756C23.3579 11.8531 23.6068 11.7364 23.8351 11.813L23.9596 11.8551C28.0397 13.245 29.5901 14.7724 28.6105 16.4374C27.6523 18.066 24.8662 19.2517 20.252 19.9943C20.1497 20.0108 20.0447 19.9915 19.9554 19.9398C19.7445 19.8179 19.6742 19.5513 19.7984 19.3444L19.8775 19.2122C20.5071 18.1552 21.0762 17.1033 21.5847 16.0565C22.1852 14.8203 22.7487 13.4933 23.2753 12.0756ZM9.74836 10.8479C9.8507 10.8314 9.95568 10.8507 10.045 10.9023C10.2559 11.0242 10.3262 11.2908 10.202 11.4978L10.1229 11.6299C9.49328 12.6869 8.9242 13.7388 8.4157 14.7857C7.8152 16.0219 7.25168 17.3489 6.72514 18.7666C6.6425 18.9891 6.39362 19.1058 6.16527 19.0291L6.04086 18.9871C1.96066 17.5972 0.41036 16.0698 1.38994 14.4047C2.34812 12.7761 5.13426 11.5905 9.74836 10.8479ZM16.3495 5.86298C19.5244 3.08898 21.5879 2.53489 22.54 4.20071C23.4712 5.83012 23.1342 8.7922 21.5289 13.0869C21.4933 13.1822 21.4258 13.2618 21.3381 13.312C21.131 13.4303 20.8682 13.3567 20.7511 13.1475L20.6761 13.0142C20.0755 11.9501 19.4498 10.94 18.7991 9.98396C18.0305 8.85496 17.1662 7.71201 16.2061 6.55511C16.0554 6.37353 16.0763 6.10352 16.253 5.94772L16.3495 5.86298ZM9.10824 3.26318C10.9566 3.26318 13.3094 5.01439 16.1666 8.51681C16.23 8.59449 16.2642 8.69202 16.2634 8.79242C16.2613 9.02939 16.0682 9.21982 15.8322 9.21775L15.6816 9.21668C14.4783 9.21013 13.3085 9.25188 12.1722 9.34192C10.8304 9.44826 9.42912 9.63035 7.96849 9.88821C7.73924 9.92868 7.51986 9.77758 7.475 9.5483L7.45081 9.42323C6.66615 5.31653 7.21862 3.26318 9.10824 3.26318Z" fill="#F1EEE9"/>
</svg>
