<svg width="30" height="30" viewBox="0 0 30 30" fill="none" xmlns="http://www.w3.org/2000/svg">
<path d="M24.5039 10.3828C24.1875 10.2773 23.8711 10.1777 23.5547 10.084C23.6074 9.86719 23.6543 9.65039 23.7012 9.43359C24.4219 5.94141 23.9473 3.13477 22.3477 2.20898C20.8066 1.32422 18.293 2.24414 15.75 4.45898C15.498 4.67578 15.252 4.9043 15.0176 5.13281C14.8594 4.98047 14.6953 4.82812 14.5312 4.68164C11.8652 2.31445 9.19336 1.31836 7.59375 2.25C6.05859 3.14062 5.60156 5.7832 6.24609 9.08789C6.31055 9.41602 6.38086 9.73828 6.46289 10.0664C6.08789 10.1719 5.71875 10.2891 5.37305 10.4121C2.24414 11.4961 0 13.207 0 14.9766C0 16.8047 2.39063 18.6387 5.64258 19.752C5.90625 19.8398 6.16992 19.9277 6.43945 20.0039C6.35156 20.3555 6.27539 20.7012 6.20508 21.0586C5.58984 24.3105 6.07031 26.8887 7.60547 27.7734C9.1875 28.6875 11.8477 27.75 14.4375 25.4824C14.6426 25.3008 14.8477 25.1133 15.0527 24.9141C15.3105 25.166 15.5801 25.4062 15.8496 25.6406C18.3574 27.7969 20.8359 28.6699 22.3652 27.7852C23.9473 26.8711 24.4629 24.0996 23.7949 20.7246C23.7422 20.4668 23.6836 20.2031 23.6191 19.9336C23.8066 19.8809 23.9883 19.8223 24.1699 19.7637C27.5508 18.6445 30 16.834 30 14.9766C30 13.2012 27.6914 11.4785 24.5039 10.3828ZM16.5762 5.4082C18.7559 3.50977 20.7891 2.76562 21.7148 3.29883C22.7051 3.86719 23.0859 6.16406 22.4648 9.18164C22.4238 9.38086 22.3828 9.57422 22.3301 9.76758C21.0293 9.47461 19.7109 9.26367 18.3867 9.14648C17.625 8.05664 16.793 7.01367 15.8906 6.03516C16.1191 5.81836 16.3418 5.61328 16.5762 5.4082ZM9.79687 18.0176C10.0957 18.5273 10.4004 19.0371 10.7227 19.5352C9.80859 19.4355 8.90039 19.2891 8.00391 19.0957C8.26172 18.252 8.58398 17.3789 8.95898 16.4883C9.22852 17.0039 9.50391 17.5137 9.79687 18.0176ZM8.02148 10.9687C8.86523 10.7812 9.76172 10.6289 10.6934 10.5117C10.3828 10.998 10.0781 11.4961 9.79102 12C9.50391 12.498 9.22266 13.0078 8.95898 13.5234C8.58984 12.6504 8.2793 11.7949 8.02148 10.9687ZM9.62695 15.0059C10.0137 14.1973 10.4355 13.4062 10.8809 12.627C11.3262 11.8477 11.8066 11.0918 12.3105 10.3477C13.1895 10.2832 14.0859 10.248 15 10.248C15.9141 10.248 16.8164 10.2832 17.6895 10.3477C18.1875 11.0859 18.6621 11.8418 19.1133 12.6152C19.5645 13.3887 19.9863 14.1797 20.3848 14.9824C19.9922 15.791 19.5703 16.5879 19.1191 17.373C18.6738 18.1523 18.1992 18.9082 17.7012 19.6582C16.8281 19.7227 15.9199 19.752 15 19.752C14.0801 19.752 13.1895 19.7227 12.3281 19.6699C11.8184 18.9258 11.3379 18.1641 10.8867 17.3848C10.4355 16.6055 10.0195 15.8145 9.62695 15.0059ZM20.209 18.0059C20.5078 17.4902 20.7891 16.9687 21.0645 16.4414C21.4395 17.291 21.7676 18.1523 22.0547 19.0371C21.1465 19.2422 20.2266 19.4004 19.3008 19.5059C19.6172 19.0137 19.916 18.5098 20.209 18.0059ZM21.0527 13.5234C20.7773 13.0078 20.4961 12.4922 20.2031 11.9883C19.916 11.4902 19.6172 10.998 19.3066 10.5117C20.25 10.6289 21.1523 10.7871 21.9961 10.9805C21.7266 11.8477 21.4102 12.6914 21.0527 13.5234ZM15.0117 6.93164C15.627 7.59961 16.207 8.30273 16.7461 9.0293C15.5859 8.97656 14.4199 8.97656 13.2598 9.0293C13.834 8.27344 14.4258 7.57031 15.0117 6.93164ZM8.21484 3.33984C9.19922 2.76562 11.3848 3.58594 13.6875 5.625C13.834 5.75391 13.9805 5.89453 14.1328 6.03516C13.2246 7.01367 12.3867 8.05664 11.6191 9.14648C10.2949 9.26367 8.98242 9.46875 7.68164 9.75586C7.60547 9.45703 7.54102 9.15234 7.47656 8.84766C6.92578 6.01172 7.28906 3.87305 8.21484 3.33984ZM6.7793 18.7852C6.5332 18.7148 6.29297 18.6387 6.05273 18.5566C4.80469 18.1641 3.38672 17.543 2.36133 16.7285C1.76953 16.3184 1.37109 15.6855 1.25977 14.9766C1.25977 13.9043 3.11133 12.5332 5.7832 11.6016C6.11719 11.4844 6.45703 11.3789 6.79688 11.2793C7.19531 12.5508 7.67578 13.7988 8.23242 15.0059C7.66992 16.2305 7.18359 17.4961 6.7793 18.7852ZM13.6113 24.5273C12.6445 25.4121 11.5254 26.1152 10.3066 26.5957C9.65625 26.9062 8.90625 26.9355 8.23828 26.6719C7.30664 26.1328 6.91992 24.0645 7.44727 21.2812C7.51172 20.9531 7.58203 20.625 7.66406 20.3027C8.97656 20.584 10.3008 20.7773 11.6426 20.877C12.416 21.9727 13.2656 23.0215 14.1738 24.0059C13.9863 24.1875 13.7988 24.3633 13.6113 24.5273ZM15.0469 23.1035C14.4492 22.459 13.8516 21.7441 13.2715 20.9766C13.834 21 14.4141 21.0117 15 21.0117C15.6035 21.0117 16.1953 21 16.7812 20.9707C16.2422 21.7148 15.6621 22.4238 15.0469 23.1035ZM22.7051 24.8613C22.6523 25.5762 22.3008 26.2441 21.7383 26.6953C20.8066 27.2344 18.8203 26.5312 16.6758 24.6914C16.4297 24.4805 16.1836 24.252 15.9316 24.0176C16.8281 23.0273 17.6543 21.9785 18.4043 20.877C19.7461 20.7656 21.082 20.5605 22.4004 20.2617C22.459 20.502 22.5117 20.7422 22.5586 20.9766C22.8457 22.2422 22.8926 23.5605 22.7051 24.8613ZM23.7715 18.5625C23.6074 18.6152 23.4434 18.668 23.2734 18.7148C22.8633 17.4375 22.3594 16.1895 21.7793 14.9766C22.3418 13.7812 22.8164 12.5508 23.2148 11.291C23.5195 11.3789 23.8125 11.4727 24.0938 11.5664C26.8242 12.5039 28.7402 13.8984 28.7402 14.9648C28.7402 16.1133 26.6953 17.5957 23.7715 18.5625ZM15 17.6836C16.4824 17.6836 17.6836 16.4824 17.6836 15C17.6836 13.5176 16.4824 12.3164 15 12.3164C13.5176 12.3164 12.3164 13.5176 12.3164 15C12.3164 16.4824 13.5176 17.6836 15 17.6836Z" fill="#FF481F"/>
</svg>
