<svg width="30" height="30" viewBox="0 0 30 30" fill="none" xmlns="http://www.w3.org/2000/svg">
<path d="M12.2373 13.0755C12.4602 13.0289 12.6898 12.9957 12.9194 12.9757L14.7027 12.806L12.2806 10.151C11.5519 9.34922 11.1494 8.31118 11.1494 7.22656H9.14648C9.14648 8.81024 9.73537 10.3307 10.8034 11.5018L12.2373 13.0755Z" fill="#FF481F"/>
<path d="M18.4919 16.9648C18.3123 16.9981 18.1293 17.0214 17.9463 17.0414L16.0166 17.2244L18.432 19.8727C19.1607 20.6745 19.5632 21.7125 19.5632 22.7972H21.5694C21.5694 21.2135 20.9806 19.6964 19.9126 18.5219L18.4919 16.9648Z" fill="#FF481F"/>
<path d="M21.8093 11.0791C21.48 9.44216 20.1957 8.25108 18.5389 8.04148L18.2328 8.00155C17.1981 7.8718 16.4162 6.9868 16.4162 5.94544V4.87745C17.3345 4.49484 17.9799 3.58989 17.9799 2.53521C17.9799 1.13452 16.8454 0 15.4447 0C14.044 0 12.9095 1.13452 12.9095 2.53521C12.9095 3.5666 13.5283 4.45492 14.4133 4.85084V5.94544C14.4133 7.99823 15.9471 9.73827 17.9832 9.99113L18.2893 10.0311C19.2442 10.1508 19.72 10.8562 19.8464 11.475C19.9728 12.0938 19.8098 12.9289 18.9747 13.4113C18.5655 13.6476 18.123 13.7906 17.6539 13.8339L13.0526 14.2664C12.294 14.3396 11.5753 14.5691 10.9166 14.9484C9.46932 15.7868 8.74735 17.3838 9.08006 19.0207C9.40944 20.6576 10.6937 21.8487 12.3505 22.0583L12.6566 22.0983C13.6913 22.228 14.4732 23.113 14.4732 24.1544V25.1259C13.5583 25.5085 12.9161 26.4134 12.9161 27.4648C12.9161 28.8655 14.0507 30 15.4514 30C16.852 30 17.9866 28.8655 17.9866 27.4648C17.9866 26.4301 17.3644 25.5384 16.4761 25.1458V24.1544C16.4761 22.1016 14.9423 20.3615 12.9062 20.1087L12.6001 20.0688C11.6452 19.949 11.1694 19.2437 11.043 18.6248C10.9166 18.006 11.0796 17.1709 11.9147 16.6885C12.3239 16.4523 12.7664 16.3092 13.2355 16.2659L17.8369 15.8334C18.5954 15.7602 19.3141 15.5307 19.9728 15.1514C21.4201 14.313 22.1387 12.716 21.8093 11.0791Z" fill="#FF481F"/>
</svg>
