<svg width="30" height="30" viewBox="0 0 30 30" fill="none" xmlns="http://www.w3.org/2000/svg">
<g clip-path="url(#clip0_326_214)">
<path d="M20.7868 20.8855C21.8939 20.7709 22.7338 19.8167 22.6956 18.6717C22.6575 17.5267 21.703 16.6106 20.5577 16.6106H20.4814C19.2978 16.6488 18.3817 17.6411 18.4199 18.8243C18.4581 19.3969 18.6871 19.893 19.0307 20.2365C17.7327 22.7938 15.7475 24.664 12.7698 26.2289C10.7464 27.2976 8.64679 27.6793 6.54715 27.4122C4.82918 27.1831 3.49301 26.4198 2.65301 25.1602C1.43144 23.29 1.31695 21.267 2.34773 19.2442C3.07312 17.7938 4.21828 16.7251 4.94367 16.1907C4.79098 15.6946 4.56187 14.8549 4.44738 14.2443C-1.0882 18.2519 -0.515509 23.6717 1.16426 26.2289C2.42402 28.1374 4.98187 29.3205 7.80691 29.3205C8.57039 29.3205 9.33386 29.2442 10.0975 29.0534C14.9841 28.0992 18.6872 25.1984 20.7868 20.8855ZM27.5059 16.1527C24.6044 12.7557 20.3287 10.8855 15.4421 10.8855H14.8314C14.4878 10.1985 13.7624 9.7404 12.9607 9.7404H12.8843C11.7009 9.77859 10.7848 10.7709 10.8228 11.9542C10.8611 13.0992 11.8154 14.0152 12.9607 14.0152H13.037C13.8769 13.977 14.6023 13.4427 14.9077 12.7175H15.5948C18.4963 12.7175 21.2449 13.5572 23.7265 15.1984C25.6352 16.458 27.0096 18.0992 27.7731 20.0839C28.4221 21.6869 28.3839 23.2518 27.6967 24.5877C26.6278 26.6106 24.8336 27.7175 22.4666 27.7175C20.9395 27.7175 19.4889 27.2594 18.7253 26.9159C18.3054 27.2976 17.5418 27.9082 17.0073 28.29C18.649 29.0533 20.3287 29.4732 21.9321 29.4732C25.597 29.4732 28.3076 27.4502 29.3384 25.4274C30.4454 23.2136 30.369 19.3969 27.5059 16.1527ZM8.1123 21.5342C8.15051 22.6792 9.10488 23.5952 10.2502 23.5952H10.3266C11.51 23.5571 12.4262 22.5647 12.388 21.3815C12.3499 20.2364 11.3954 19.3205 10.2502 19.3205H10.1739C10.0975 19.3205 9.98285 19.3205 9.90668 19.3585C8.3414 16.7632 7.69242 13.9388 7.92152 10.8854C8.0741 8.59531 8.83769 6.61054 10.1739 4.96929C11.2809 3.55707 13.4188 2.87006 14.8696 2.83199C18.9162 2.7556 20.634 7.79372 20.7486 9.81667C21.2449 9.93113 22.0848 10.1984 22.6575 10.3892C22.1993 4.20613 18.3817 1 14.7169 1C11.2809 1 8.1123 3.48092 6.85242 7.14502C5.09637 12.0305 6.24164 16.7251 8.37949 20.4274C8.18871 20.6945 8.0741 21.1143 8.1123 21.5342Z" fill="#FF481F"/>
</g>
<defs>
<clipPath id="clip0_326_214">
<rect width="30" height="30" fill="white"/>
</clipPath>
</defs>
</svg>
