<svg width="30" height="30" viewBox="0 0 30 30" fill="none" xmlns="http://www.w3.org/2000/svg">
<g clip-path="url(#clip0_326_220)">
<path d="M15.1477 6.83263C14.8847 6.83029 14.6227 6.86394 14.3689 6.93263C14.0214 7.01638 13.4914 7.34763 13.1777 7.66138C12.6652 8.19013 12.5652 8.42263 12.3502 9.49763C12.2502 10.0264 12.8627 11.2851 13.4089 11.6651C13.9714 12.0614 14.7652 12.2926 15.9902 12.4251C17.7764 12.6251 18.2902 13.2201 18.2902 15.1714C18.2902 16.8926 17.8089 17.3551 15.8402 17.5539C13.7064 17.7689 12.6152 18.5964 12.3839 20.2001C12.2514 21.1764 12.8964 22.4001 13.7902 22.8139C15.8239 23.7739 17.7277 22.5664 18.1239 20.0689C18.3877 18.4639 18.9014 18.0164 20.6214 17.8851C22.6064 17.7189 23.6327 17.0414 24.0127 15.6514C24.3602 14.3764 23.6327 12.9551 22.3914 12.4589C22.0614 12.3264 21.3002 12.1614 20.7039 12.0951C18.8352 11.8951 18.3552 11.5651 18.1564 10.3576C17.8752 8.68638 17.7602 8.40513 17.1639 7.74513C16.9107 7.4601 16.6003 7.23154 16.2529 7.07433C15.9055 6.91712 15.5289 6.83477 15.1477 6.83263ZM9.1664 12.2826C8.95769 12.2784 8.7492 12.2985 8.54515 12.3426C6.7089 12.7401 5.83265 14.9064 6.85765 16.4614C8.33015 18.6789 11.7877 17.6526 11.8202 14.9901C11.8352 13.4989 10.5952 12.3114 9.1664 12.2826ZM2.6114 17.7376C2.4318 17.742 2.25305 17.7637 2.07765 17.8026C-0.619846 18.3976 -0.718596 22.3351 1.94515 23.0301C2.60765 23.2114 2.67265 23.2114 3.3339 23.0464C4.82265 22.6489 5.6664 21.2264 5.27015 19.7876C4.92265 18.5126 3.84015 17.7076 2.6114 17.7376ZM27.3914 17.7476C27.1002 17.7501 26.7952 17.8201 26.4114 17.9501C24.6739 18.5464 24.0789 20.5651 25.1864 22.1201C25.8827 23.1126 27.6364 23.4426 28.7114 22.7651C30.4814 21.6726 30.4152 18.9439 28.5952 18.0826C28.1202 17.8501 27.7664 17.7439 27.3914 17.7476Z" fill="#FF481F"/>
</g>
<defs>
<clipPath id="clip0_326_220">
<rect width="30" height="30" fill="white"/>
</clipPath>
</defs>
</svg>
