<svg width="30" height="24" viewBox="0 0 30 24" fill="none" xmlns="http://www.w3.org/2000/svg">
<g clip-path="url(#clip0_153_177)">
<path d="M14.1471 17.7609C14.1331 17.7891 14.119 17.8125 14.1471 17.7609ZM25.8237 13.6828C24.8809 13.6826 23.9507 13.8991 23.1049 14.3156C22.8284 13.7578 22.5424 13.2703 22.4956 12.9047C22.4393 12.4781 22.3784 12.225 22.444 11.7188C22.5096 11.2125 22.8049 10.4953 22.8002 10.4438C22.7956 10.3922 22.7346 10.1344 22.1299 10.1297C21.5252 10.125 21.0049 10.2469 20.944 10.4063C20.8372 10.6975 20.7541 10.9969 20.6956 11.3016C20.5877 11.85 19.4862 13.8094 18.8627 14.8313C18.6565 14.4328 18.4831 14.0813 18.4456 13.8C18.3893 13.3734 18.3284 13.1203 18.394 12.6141C18.4596 12.1078 18.7549 11.3906 18.7502 11.3391C18.7456 11.2875 18.6846 11.0297 18.0799 11.025C17.4752 11.0203 16.9549 11.1422 16.894 11.3016C16.8331 11.4609 16.7674 11.8359 16.6456 12.1969C16.5237 12.5578 15.0565 15.8203 14.6721 16.6688C14.4752 17.1 14.3065 17.4469 14.1846 17.6813C14.1659 17.7188 14.1518 17.7422 14.1424 17.7609C14.1565 17.7375 14.1659 17.7141 14.1659 17.7234C14.0627 17.925 14.0018 18.0375 14.0018 18.0375V18.0422C13.9221 18.1922 13.8331 18.3281 13.7909 18.3281C13.7627 18.3281 13.7018 17.9344 13.8049 17.3953C14.0252 16.2609 14.5456 14.4984 14.5409 14.4375C14.5362 14.4047 14.6393 14.1 14.1987 13.9359C13.7721 13.7813 13.6174 14.0391 13.5799 14.0391C13.5424 14.0391 13.5143 14.1328 13.5143 14.1328C13.5143 14.1328 13.9877 12.1453 12.6049 12.1453C11.7424 12.1453 10.5424 13.0922 9.9518 13.95C9.58149 14.1516 8.77993 14.5875 7.93618 15.0516C7.61274 15.2297 7.27993 15.4125 6.96587 15.5859C6.94243 15.5625 6.92368 15.5391 6.90024 15.5156C5.22212 13.725 2.12368 12.4594 2.25493 10.0547C2.3018 9.17813 2.60649 6.87657 8.21274 4.08282C12.8065 1.79532 16.4815 2.42344 17.1096 3.82032C18.019 5.81251 15.1456 9.52032 10.3737 10.0547C8.55493 10.2563 7.59868 9.55313 7.35962 9.29063C7.11118 9.01407 7.07368 9.00001 6.97993 9.05157C6.82524 9.13594 6.92368 9.37969 6.97993 9.52501C7.12055 9.89532 7.70649 10.5516 8.70493 10.8797C9.58149 11.1656 11.7143 11.325 14.2924 10.3266C17.1893 9.21094 19.444 6.10313 18.7831 3.50157C18.1174 0.857819 13.7346 -0.00936878 9.59087 1.46251C7.12055 2.33907 4.44868 3.71719 2.5268 5.51251C0.243992 7.65001 -0.121633 9.51094 0.0283668 10.2891C0.562742 13.05 4.36899 14.85 5.89243 16.1813C5.81743 16.2234 5.74712 16.2609 5.68149 16.2984C4.91743 16.6781 2.01587 18.1969 1.2893 19.8C0.468992 21.6188 1.42524 22.9219 2.05337 23.1C4.01274 23.6438 6.01899 22.6641 7.09712 21.0563C8.17524 19.4484 8.04399 17.3484 7.54712 16.3922C7.54243 16.3781 7.53305 16.3688 7.52837 16.3547C7.72524 16.2375 7.9268 16.1203 8.12837 16.0031C8.51743 15.7734 8.89712 15.5625 9.22993 15.3797C9.04243 15.8859 8.90649 16.4953 8.83618 17.3766C8.7518 18.4078 9.17837 19.7438 9.73149 20.2688C9.97524 20.4984 10.2706 20.5031 10.4534 20.5031C11.1002 20.5031 11.3909 19.9688 11.7143 19.3313C12.1127 18.5531 12.4643 17.6484 12.4643 17.6484C12.4643 17.6484 12.0237 20.0953 13.2284 20.0953C13.669 20.0953 14.1096 19.5281 14.3065 19.2375V19.2422C14.3065 19.2422 14.3159 19.2234 14.3393 19.1859C14.3862 19.1156 14.4096 19.0734 14.4096 19.0734V19.0594C14.5877 18.7547 14.9768 18.0563 15.5627 16.9031C16.3221 15.4125 17.0487 13.5516 17.0487 13.5516C17.1188 13.9606 17.2159 14.3647 17.3393 14.7609C17.4706 15.2063 17.7471 15.6938 17.9674 16.1672C17.7893 16.4109 17.6815 16.5516 17.6815 16.5516C17.6818 16.5552 17.6835 16.5585 17.6862 16.5609C17.5456 16.7484 17.3862 16.95 17.2221 17.1469C16.6221 17.8594 15.9096 18.675 15.8159 18.9094C15.7034 19.1859 15.7315 19.3922 15.9471 19.5516C16.1065 19.6734 16.3877 19.6922 16.6831 19.6688C17.2221 19.6313 17.6018 19.5 17.7846 19.4156C18.1218 19.2948 18.4405 19.1276 18.7315 18.9188C19.3174 18.4875 19.6737 17.8688 19.6409 17.0531C19.6221 16.6031 19.4768 16.1531 19.2987 15.7313C19.3502 15.6563 19.4065 15.5766 19.4581 15.4969C20.3815 14.1422 21.0987 12.6563 21.0987 12.6563C21.1688 13.0653 21.2659 13.4693 21.3893 13.8656C21.5018 14.2453 21.7221 14.6625 21.9237 15.0703C21.0518 15.7781 20.5127 16.5984 20.3252 17.1375C19.9784 18.1359 20.2502 18.5859 20.7612 18.6891C20.9909 18.7359 21.319 18.6281 21.5627 18.525C21.9249 18.4044 22.2664 18.229 22.5752 18.0047C23.1612 17.5734 23.7284 16.9688 23.6909 16.1484C23.6768 15.7781 23.5737 15.4078 23.4377 15.0516C24.1737 14.7422 25.1299 14.5734 26.3487 14.7141C28.9596 15.0188 29.4706 16.65 29.3721 17.3297C29.2737 18.0094 28.7252 18.3891 28.5424 18.5016C28.3596 18.6141 28.3034 18.6563 28.3174 18.7406C28.3409 18.8625 28.4252 18.8578 28.5799 18.8297C28.7956 18.7922 29.9487 18.2766 30.0002 17.0156C30.0752 15.4219 28.5424 13.6688 25.8284 13.6828H25.8237ZM5.70493 20.4656C4.84243 21.4078 3.63305 21.7641 3.11274 21.4641C2.55962 21.1406 2.77993 19.7531 3.84399 18.75C4.49087 18.1406 5.32524 17.5781 5.87837 17.2313C6.00493 17.1563 6.18774 17.0438 6.41274 16.9078C6.45024 16.8844 6.46899 16.875 6.46899 16.875C6.51118 16.8469 6.55805 16.8234 6.60493 16.7953C6.99399 18.2203 6.61899 19.4766 5.70962 20.4656H5.70493ZM12.0049 16.1813C11.7049 16.9172 11.0721 18.7922 10.6877 18.6938C10.3596 18.6094 10.1581 17.1797 10.6221 15.7734C10.8565 15.0656 11.3534 14.2219 11.6487 13.8938C12.1221 13.3641 12.6424 13.1953 12.7643 13.4063C12.9284 13.6828 12.1924 15.7219 12.0049 16.1813ZM17.2081 18.6656C17.0815 18.7313 16.9643 18.7734 16.9081 18.7406C16.8659 18.7172 16.9596 18.6281 16.9596 18.6281C16.9596 18.6281 17.6112 17.9297 17.869 17.6109C18.019 17.4234 18.1924 17.2031 18.3799 16.9594C18.3799 16.9828 18.3846 17.0063 18.3846 17.0344C18.3799 17.8734 17.5737 18.4406 17.2081 18.6656ZM21.2206 17.7516C21.1268 17.6859 21.1409 17.4656 21.4549 16.7813C21.5768 16.5141 21.8581 16.0641 22.3456 15.6328C22.4008 15.7961 22.4308 15.9668 22.4346 16.1391C22.4299 17.1938 21.6752 17.5875 21.2206 17.7516Z" fill="#FF481F"/>
</g>
<defs>
<clipPath id="clip0_153_177">
<rect width="30" height="24" fill="white"/>
</clipPath>
</defs>
</svg>
