<svg width="30" height="30" viewBox="0 0 30 30" fill="none" xmlns="http://www.w3.org/2000/svg">
<g clip-path="url(#clip0_326_222)">
<path d="M24.0556 0L23.8459 1.1197C23.5216 3.24169 23.639 3.8488 24.5281 4.63631L25.3864 5.36369L24.4973 9.4244C23.9661 11.8471 23.3147 13.8774 22.9009 14.5447C22.5458 15.1203 22.132 15.9679 22.0426 16.4233C21.8944 16.9674 21.3911 17.5143 20.6223 17.9983C19.9429 18.3935 18.6092 19.453 17.6642 20.3035C16.9094 20.9994 16.3893 21.4261 16.1069 21.6094L15.1843 22.3568C14.888 22.8436 14.7202 23.236 14.6559 23.5338C14.5916 23.8402 14.6279 24.0435 14.723 24.1924C14.8153 24.3356 14.9746 24.4359 15.1927 24.4989C15.4508 24.5608 15.7166 24.583 15.9811 24.5647C16.5796 24.5228 17.172 24.4153 17.7481 24.244C17.9438 24.1896 18.0976 24.138 18.2318 24.0922C18.4387 23.8316 18.9168 23.3391 19.7639 22.4828C22.0118 20.2119 22.8701 18.9691 21.9838 19.3041C21.6567 19.4244 21.8049 19.1208 22.3669 18.5137C23.5523 17.331 24.2317 15.5441 25.652 9.93986C26.7759 5.51546 26.7759 5.45246 27.6035 5.45246C27.9921 5.45246 29.0909 5.52119 29.0909 5.52119V0H26.5691H24.0556ZM14.0967 9.46449C13.2803 9.45876 11.5245 10.7331 6.26832 15.1289C6.04185 15.6816 6.02228 16.0624 6.12573 16.3087C6.19283 16.4777 6.31584 16.5951 6.48639 16.681C6.65414 16.7669 6.87222 16.8184 7.11267 16.8385C7.59076 16.8814 8.15552 16.8041 8.61124 16.7125L8.91879 16.6409C9.02406 16.4963 9.16228 16.3803 9.32139 16.303C9.64571 16.1197 11.0073 14.8482 12.3689 13.4851C14.7649 10.9994 15.3269 9.87686 14.3511 9.51317C14.2711 9.48055 14.1829 9.46402 14.0967 9.46449ZM20.2364 11.1913C19.5179 11.2113 18.2234 12.0647 16.0063 13.8774C14.8935 14.8024 14.189 15.3007 13.8115 15.4038L12.3465 16.5893C11.7957 17.6203 11.7147 18.2589 11.86 18.6111C11.8964 18.698 11.9493 18.7766 12.0155 18.8425C12.0817 18.9084 12.16 18.9601 12.2459 18.9948C12.4595 19.0812 12.6872 19.125 12.9169 19.1237C13.4656 19.1177 14.0111 19.0358 14.5385 18.8803C14.8133 18.8048 15.0848 18.7168 15.3521 18.6168L15.4331 18.5825L15.5813 18.5023C15.8609 18.1329 16.504 17.437 17.3092 16.6352C19.8534 14.1208 21.1535 12.3339 20.8879 11.6667C20.7676 11.3431 20.5607 11.1798 20.2364 11.1913ZM13.4593 14.2841C13.2524 14.307 12.7883 14.6735 11.9523 15.4238C10.7445 16.5178 9.42763 17.1478 8.97191 16.8671C8.866 16.8916 8.75975 16.9145 8.65318 16.9359C8.18907 17.0304 7.61033 17.1077 7.09309 17.0647C6.84939 17.0496 6.61052 16.9884 6.38854 16.8843C6.17916 16.7863 6.01207 16.6131 5.91883 16.3975C5.81539 16.1397 5.81539 15.819 5.93281 15.4095L4.1155 16.9387L0.00279486 20.4238V26.0739L13.4788 15.2005C13.4762 15.0814 13.4913 14.9626 13.5236 14.8482C13.627 14.4645 13.6214 14.2698 13.4593 14.2869V14.2841ZM19.2579 16.114C19.0538 16.114 18.7127 16.4089 18.1675 17.0017C17.4266 17.8121 16.2607 18.5968 15.6428 18.7572L15.5478 18.8087C15.4463 18.8516 15.3438 18.8917 15.2402 18.929C15.0725 18.9863 14.8544 19.055 14.6028 19.1237C14.0995 19.264 13.4732 19.3929 12.9141 19.3786C12.6505 19.3782 12.3894 19.3257 12.1452 19.2239C11.9151 19.1268 11.7307 18.942 11.6308 18.7085C11.4686 18.3104 11.5329 17.752 11.888 16.9588L0 26.5493V30H5.22266L16.2999 21.0882C16.5878 20.7617 17.0212 20.315 17.6055 19.7566C19.1712 18.2703 19.5263 17.7577 19.5263 16.9989C19.5263 16.4089 19.462 16.1111 19.2579 16.1111V16.114ZM21.8944 21.6982L20.9466 22.6661C20.4154 23.1816 19.4676 23.8173 18.8189 24.0893L18.6903 24.1466L18.6819 24.1609L18.654 24.1896C18.6288 24.2096 18.6176 24.2125 18.5981 24.2211C18.3391 24.3215 18.0761 24.4103 17.8096 24.4874C17.2172 24.664 16.6079 24.7744 15.9923 24.8167C15.7013 24.8358 15.4091 24.8098 15.1256 24.7394C14.8796 24.6839 14.6624 24.537 14.5161 24.327C14.3819 24.1151 14.3428 23.8316 14.4182 23.4822C14.4783 23.2335 14.5675 22.9931 14.6838 22.7663L5.74549 30H17.6335L19.0538 28.3333C21.0053 26.0023 21.8944 24.3356 21.8944 22.9095V21.6982Z" fill="#FF481F"/>
</g>
<defs>
<clipPath id="clip0_326_222">
<rect width="30" height="30" fill="white"/>
</clipPath>
</defs>
</svg>
