<svg width="30" height="30" viewBox="0 0 30 30" fill="none" xmlns="http://www.w3.org/2000/svg">
<g clip-path="url(#clip0_153_185)">
<path d="M0 15V0H30V30H0" fill="#FF481F"/>
<path d="M6.57715 15.0526V16.2751H10.4771V27.3751H13.2446V16.2751H17.1446V15.0751C17.1446 14.4001 17.1446 13.8526 17.1146 13.8376C17.1146 13.8151 14.7371 13.8076 11.8496 13.8076L6.59965 13.8301V15.0601L6.57715 15.0526ZM24.1046 13.8001C24.8696 13.9801 25.4547 14.3251 25.9797 14.8726C26.2572 15.1726 26.6696 15.6976 26.6996 15.8326C26.6996 15.8776 25.4022 16.7551 24.6147 17.2426C24.5847 17.2651 24.4646 17.1376 24.3446 16.9426C23.9546 16.3876 23.5571 16.1476 22.9346 16.1026C22.0346 16.0426 21.4346 16.5151 21.4346 17.3026C21.4346 17.5426 21.4796 17.6776 21.5696 17.8726C21.7721 18.2851 22.1471 18.5326 23.3096 19.0426C25.4546 19.9651 26.3846 20.5726 26.9471 21.4426C27.5846 22.4176 27.7271 23.9476 27.2996 25.0951C26.8196 26.3476 25.6497 27.1951 23.9772 27.4726C23.4522 27.5626 22.2522 27.5476 21.6897 27.4501C20.4897 27.2251 19.3421 26.6251 18.6371 25.8526C18.3596 25.5526 17.8271 24.7501 17.8571 24.6976L18.1421 24.5176L19.2671 23.8651L20.1147 23.3701L20.3096 23.6326C20.5571 24.0226 21.1121 24.5476 21.4346 24.7276C22.4096 25.2301 23.7146 25.1626 24.3596 24.5776C24.6371 24.3226 24.7571 24.0526 24.7571 23.6776C24.7571 23.3326 24.7046 23.1751 24.5321 22.9126C24.2921 22.5826 23.8121 22.3126 22.4621 21.7126C20.9096 21.0526 20.2496 20.6326 19.6346 19.9876C19.2821 19.5976 18.9596 18.9901 18.8096 18.4876C18.6971 18.0526 18.6596 16.9876 18.7646 16.5601C19.0871 15.0601 20.2197 14.0101 21.8397 13.7101C22.3647 13.6051 23.6021 13.6501 24.1196 13.7851L24.1046 13.8001Z" fill="white"/>
</g>
<defs>
<clipPath id="clip0_153_185">
<rect width="30" height="30" rx="3" fill="white"/>
</clipPath>
</defs>
</svg>
